<svg xmlns="http://www.w3.org/2000/svg" xmlns:xlink="http://www.w3.org/1999/xlink" version="1.1" pageAlignment="none" width="306.9374968917109" height="388.62499867286533" enable-background="new 0 0 842 595" xml:space="preserve"><rect id="backgroundrect" width="100%" height="100%" x="0" y="0" fill="none" stroke="none"/><defs/><style type="text/css"/><style type="text/css"/><g class="currentLayer"><title>Layer 1</title><g type="LAYER" name="workspace" id="workspace" locked="true"/><g type="LAYER" name="Layer 01" id="Layer 01" class=""><path width="299.23593304804086" height="383.4430495817726" stroke-width="0.8874729346432401" stroke-miterlimit="3" stroke="#060096" fill="#02B3E4" fill-opacity="0.84" d="M53.9488988521872,42.30653519436851 C38.310875338050664,53.56711280043993 27.912672608924254,58.37656319259352 20.67357163201075,75.1374259600766 C12.27064960023472,94.5929113124181 -1.9090860422431888,208.48399618695203 6.115615973183708,233.82006466099887 C9.695549837161593,245.1228456659427 14.747576654881982,255.93113440037752 17.554009705119256,267.74531845223044 C22.191670785018346,287.2683858432031 23.205509742885283,318.5619536493595 37.311235242098746,333.40709998364656 C74.43581707145199,372.4777489826417 85.25559183243786,365.5473807940327 127.77853112195339,380.4647100811614 C160.94538957906525,392.09986412485944 187.65023642136885,382.9420253896573 221.36538892869874,372.8041689024962 C227.81881176515867,370.86368013998 246.25114362790328,367.4068027126369 251.5211542219837,361.8605386472603 C258.4207457406378,354.5992711749182 263.3575771878709,346.45710630612956 271.2783797589633,338.87891511126446 C276.7773377836937,333.6178124755248 287.6185843900935,329.8118378918112 292.0754592715732,323.5578327539341 C311.25860164077426,296.63953818027613 300.2304277713605,230.42416757727636 296.23487517409535,200.98917389529072 C288.6251031825476,144.92844511252122 265.4855301028075,99.52690657781136 232.8037826606345,56.5332545261754 C228.5013182945421,50.8732555849428 226.7501472370201,43.89582703949452 221.36538892869874,40.11780914332141 C209.44534840576807,31.754550508454656 196.36785112402913,25.13271857594728 184.97049978163102,17.13618560732567 C150.72560226648557,-6.890488991029741 108.02188811423969,1.8147967172969288 76.8256863160583,18.23054863284932 C72.32091094794328,20.601006272425934 64.52165448884182,16.952837346529833 61.22787668160049,20.419274683896532 C55.626289227617235,26.31449683771811 53.10134511033948,37.875366236423844 47.70977499840444,44.49526124541572 C47.10507440918195,45.237726673745016 32.11196536394641,58.66761096179587 32.11196536394641,58.72198057722258 " id="svg_1"/><path width="260.84417335775316" height="352.1919191919195" stroke-width="0.9989253507813748" stroke-miterlimit="3" stroke="#0282A2" fill="#02B3E4" d="M68.36774640010998,18.7352241115274 C39.19966336259682,31.744509371107682 35.932266564771965,73.45451313318324 25.9950466963042,104.47927724019047 C8.887370610861524,157.8907567078178 34.96980041321939,276.50325341392596 61.30562978280892,317.6144950171528 C67.73803121975601,327.6557208259981 81.44883565237711,334.90262879467815 89.5540962520127,343.3377109557518 C104.46293064234288,358.8532198604153 160.9193733337127,370.8443218086175 183.71565114935885,362.93635167087456 C190.31188847522782,360.64813390934904 195.71463453949838,356.1397941810663 202.54796212882803,354.3619463580083 C209.7992570073415,352.47535470180725 223.12020610114786,351.32629647400205 228.44238972559805,345.78754104514195 C237.61925562190902,336.2372475209573 263.63455097789404,327.6602967528116 268.46105055697024,317.6144950171528 C297.79070274109733,256.56820961087453 274.1077733414262,109.13086302383772 229.61940916181442,62.832165720554116 C210.9914187624267,43.44615985646351 180.88950911891305,27.554163068119806 155.46718468015507,18.7352241115274 C140.45209386823973,13.526527730637383 123.64183713674578,17.804615978376603 108.38640723148188,13.835563932746652 C99.62480327618397,11.55603052610195 62.48264921902597,15.955406487176305 62.48264921902597,22.409969245612956 " id="svg_2"/><path width="218.16840743920682" height="290.76138090603916" stroke-width="1.1036473336381816" stroke-miterlimit="3" stroke="#000000" fill="#FFFFFF" d="M44.00741326786414,162.34658227425302 C44.00741326786414,82.05503672354524 92.84606935302708,16.96589182123347 153.0916169874675,16.96589182123347 C213.33716462190802,16.96589182123347 262.1758207070709,82.05503672354524 262.1758207070709,162.34658227425302 C262.1758207070709,242.63812782496086 213.33716462190802,307.72727272727263 153.0916169874675,307.72727272727263 C92.84606935302708,307.72727272727263 44.00741326786414,242.63812782496086 44.00741326786414,162.34658227425302 z" id="svg_3"/><path width="12.50799274265853" height="16.227272727272805" stroke-width="3.6909255574520823" stroke-miterlimit="3" stroke="#000000" fill="#FFFFFF" fill-opacity="0.84" d="M248.95359848484998,164.08585858585883 L261.4615912275085,147.85858585858603 " id="svg_4"/><path width="19.232323232323324" height="16.227272727272805" stroke-width="4.576751688123849" stroke-miterlimit="3" stroke="#000000" fill="#FFFFFF" fill-opacity="0.84" d="M45.59983067653474,155.4709859490299 L69.69455012163706,162.7270959219881 " id="svg_5"/><path width="85.34343434343418" height="58.611867780065495" stroke-width="4.735795155755732" stroke-miterlimit="3" stroke="#000000" fill="#FFFFFF" fill-opacity="0.84" d="M69.2515782828288,163.94229752639637 C69.2515782828288,147.75707568912617 88.35635467070739,134.63636363636363 111.9232954545459,134.63636363636363 C135.49023623838383,134.63636363636363 154.59501262626299,147.75707568912617 154.59501262626299,163.94229752639637 C154.59501262626299,180.12751936366612 135.49023623838383,193.24823141642912 111.9232954545459,193.24823141642912 C88.35635467070739,193.24823141642912 69.2515782828288,180.12751936366612 69.2515782828288,163.94229752639637 z" id="svg_6"/><path width="85.34343434343418" height="58.611867780065495" stroke-width="4.735795155755732" stroke-miterlimit="3" stroke="#000000" fill="#FFFFFF" fill-opacity="0.84" d="M167.216224747475,161.68181818181813 C167.216224747475,145.49659634454792 186.32100113535358,132.37588429178538 209.8879419191921,132.37588429178538 C233.45488270303008,132.37588429178538 252.55965909090924,145.49659634454792 252.55965909090924,161.68181818181813 C252.55965909090924,177.86704001908788 233.45488270303008,190.98775207185088 209.8879419191921,190.98775207185088 C186.32100113535358,190.98775207185088 167.216224747475,177.86704001908788 167.216224747475,161.68181818181813 z" id="svg_7"/><path width="10.818181818181813" height="2.4040404040404155" stroke-width="4.735795155755732" stroke-miterlimit="3" stroke="#000000" fill="#FFFFFF" fill-opacity="0.84" d="M155.11115080977493,165.72488791289567 L166.04251080638682,163.90339491538725 " id="svg_8"/></g></g></svg>